<?xml version="1.0" standalone="no"?>
<!DOCTYPE svg PUBLIC "-//W3C//DTD SVG 20010904//EN"
 "http://www.w3.org/TR/2001/REC-SVG-20010904/DTD/svg10.dtd">
<svg version="1.0" xmlns="http://www.w3.org/2000/svg"
 width="2429.000000pt" height="2335.000000pt" viewBox="0 0 2429.000000 2335.000000"
 preserveAspectRatio="xMidYMid meet">
<metadata>
Created by potrace 1.16, written by Peter Selinger 2001-2019
</metadata>
<g transform="translate(0.000000,2335.000000) scale(0.100000,-0.100000)"
fill="#000000" stroke="none">
<path d="M2652 23232 c-326 -758 -731 -1932 -1057 -3062 -545 -1888 -986
-3973 -1295 -6115 -21 -148 -50 -313 -65 -365 -95 -354 -172 -841 -217 -1380
-18 -211 -18 -1128 0 -1345 106 -1304 417 -2437 976 -3555 1641 -3287 5199
-5752 10476 -7259 511 -146 535 -151 674 -151 l128 0 306 85 c1514 423 2838
899 4086 1472 252 116 877 427 1101 548 1211 655 2204 1345 3105 2159 176 159
614 595 771 766 1011 1109 1725 2304 2165 3625 252 759 393 1467 461 2315 21
267 24 1020 5 1270 -41 541 -109 995 -206 1385 -25 99 -54 248 -66 330 -226
1595 -543 3239 -915 4740 -388 1564 -865 3086 -1325 4230 -141 350 -174 420
-194 417 -10 -2 -113 -48 -229 -103 -1559 -738 -4173 -2396 -7352 -4664 -553
-394 -1101 -791 -1510 -1094 -137 -101 -269 -198 -292 -214 l-41 -29 -374 274
c-3491 2567 -6643 4632 -8498 5567 -235 119 -552 271 -564 271 -2 0 -27 -53
-54 -118z m2247 -6492 c328 -223 638 -452 978 -723 l213 -169 -88 -94 c-369
-400 -644 -972 -770 -1604 -29 -145 -76 -469 -69 -476 2 -2 45 2 96 8 257 32
545 -67 725 -247 131 -131 216 -324 216 -491 0 -83 -29 -197 -75 -291 -129
-263 -427 -442 -748 -446 l-98 -2 6 -34 c4 -18 27 -97 52 -175 305 -951 909
-1613 1613 -1766 686 -150 1367 176 1849 885 88 129 140 219 221 383 l66 132
419 -209 c748 -373 1300 -701 1690 -1002 162 -126 420 -384 462 -464 34 -65
148 -332 208 -488 31 -81 45 -104 85 -140 26 -24 66 -49 89 -56 23 -6 41 -15
41 -19 0 -13 125 -8 133 6 4 6 16 12 26 12 29 0 109 57 135 97 14 21 43 85 64
143 53 141 167 405 197 456 39 67 185 223 301 324 404 349 1101 772 1961 1192
144 70 272 130 285 133 21 5 29 -6 96 -140 262 -526 625 -914 1047 -1121 226
-110 430 -157 680 -157 173 -1 275 13 430 58 520 150 987 587 1300 1214 111
221 190 434 271 723 5 16 0 17 -38 12 -24 -3 -85 -1 -136 5 -574 70 -902 589
-662 1049 98 189 295 338 529 399 102 27 287 37 380 20 l44 -8 -7 83 c-20 227
-102 614 -181 853 -118 353 -281 674 -478 938 -74 100 -199 245 -247 287 -16
15 -3 28 184 177 334 266 661 507 998 737 86 58 161 106 166 106 15 0 108
-112 190 -228 373 -525 645 -1302 751 -2142 85 -667 77 -1531 -19 -2190 -63
-431 -240 -850 -514 -1213 -701 -933 -2104 -1616 -4047 -1971 -484 -89 -1263
-185 -1504 -186 -33 0 -65 -4 -72 -8 -6 -4 -503 -958 -1104 -2120 -647 -1253
-1096 -2109 -1101 -2104 -5 5 -497 954 -1094 2108 -596 1154 -1091 2104 -1099
2110 -8 6 -72 14 -142 18 -286 15 -799 75 -1203 142 -1280 209 -2373 571
-3168 1049 -331 198 -568 381 -813 625 -262 261 -427 485 -569 775 -94 191
-146 331 -194 522 -124 496 -165 1527 -90 2268 93 923 375 1766 779 2330 68
94 171 215 184 215 4 0 81 -50 170 -110z"/>
</g>
</svg>
